<?xml version="1.0" encoding="UTF-8"?>
<svg id="Calque_1" xmlns="http://www.w3.org/2000/svg" version="1.1" viewBox="0 0 286.6 106.2">
  <!-- Generator: Adobe Illustrator 30.1.0, SVG Export Plug-In . SVG Version: 2.1.1 Build 136)  -->
  <defs>
    <style>
      .st0 {
        fill: #ff8000;
      }

      .st1 {
        fill: #00e054;
      }

      .st2 {
        fill: #fff;
      }

      .st3 {
        fill: #40bcf4;
      }
    </style>
  </defs>
  <path class="st0" d="M98.2,25.1C88.8,10,72.1,0,53.1,0,23.8,0,0,23.8,0,53.1s23.8,53.1,53.1,53.1,35.7-10,45.1-25.1c-5.1-8.1-8-17.7-8-28s2.9-19.9,8-28Z"/>
  <path class="st1" d="M188.4,25.1C179,10,162.3,0,143.3,0s-35.7,10-45.1,25.1c5.1,8.1,8,17.7,8,28s-2.9,19.9-8,28c9.4,15.1,26.1,25.1,45.1,25.1s35.7-10,45.1-25.1c-5.1-8.1-8-17.7-8-28s2.9-19.9,8-28Z"/>
  <path class="st2" d="M98.2,25.1c-5.1,8.1-8,17.7-8,28s2.9,19.9,8,28c5.1-8.1,8-17.7,8-28s-2.9-19.9-8-28Z"/>
  <path class="st3" d="M233.5,0c-19,0-35.7,10-45.1,25.1,5.1,8.1,8,17.7,8,28s-2.9,19.9-8,28c9.4,15.1,26.1,25.1,45.1,25.1,29.3,0,53.1-23.8,53.1-53.1S262.8,0,233.5,0Z"/>
  <path class="st2" d="M188.4,25.1c-5.1,8.1-8,17.7-8,28s2.9,19.9,8,28c5.1-8.1,8-17.7,8-28s-2.9-19.9-8-28Z"/>
</svg>